<mxfile host="Electron" modified="2024-11-30T20:55:02.230Z" agent="Mozilla/5.0 (Windows NT 10.0; Win64; x64) AppleWebKit/537.36 (KHTML, like Gecko) draw.io/24.2.5 Chrome/120.0.6099.109 Electron/28.1.0 Safari/537.36" etag="17oxzLvUJ1C10TsvPjao" version="24.2.5" type="device">
  <diagram name="Страница — 1" id="SnVHFy-96KRzGBhi1hI_">
    <mxGraphModel dx="3348" dy="2488" grid="0" gridSize="10" guides="1" tooltips="1" connect="1" arrows="1" fold="1" page="0" pageScale="1" pageWidth="827" pageHeight="1169" math="0" shadow="0">
      <root>
        <mxCell id="0" />
        <mxCell id="1" value="фон" parent="0" />
        <mxCell id="GkQJpH66xGiW_wHa0gbF-24" value="" style="ellipse;whiteSpace=wrap;html=1;fontFamily=Helvetica;fontSize=11;fontColor=default;labelBackgroundColor=default;fillColor=none;sketch=1;curveFitting=1;jiggle=2;shadow=1;dashed=1;dashPattern=12 12;strokeWidth=1.9685;" vertex="1" parent="1">
          <mxGeometry x="326" y="-750" width="700" height="1108" as="geometry" />
        </mxCell>
        <mxCell id="GkQJpH66xGiW_wHa0gbF-72" value="" style="ellipse;whiteSpace=wrap;html=1;fontFamily=Helvetica;fontSize=11;fontColor=default;labelBackgroundColor=default;fillColor=none;sketch=1;curveFitting=1;jiggle=2;shadow=1;dashed=1;dashPattern=12 12;strokeWidth=1.9685;" vertex="1" parent="1">
          <mxGeometry x="650" y="390" width="1381" height="385" as="geometry" />
        </mxCell>
        <mxCell id="GkQJpH66xGiW_wHa0gbF-73" value="" style="ellipse;whiteSpace=wrap;html=1;fontFamily=Helvetica;fontSize=11;fontColor=default;labelBackgroundColor=default;fillColor=none;sketch=1;curveFitting=1;jiggle=2;shadow=1;dashed=1;dashPattern=12 12;strokeWidth=1.9685;" vertex="1" parent="1">
          <mxGeometry x="1492" y="-760" width="790" height="1148" as="geometry" />
        </mxCell>
        <mxCell id="GkQJpH66xGiW_wHa0gbF-69" value="указатели" parent="0" />
        <mxCell id="GkQJpH66xGiW_wHa0gbF-16" value="&lt;b&gt;&lt;font style=&quot;font-size: 18px;&quot; face=&quot;Comic Sans MS&quot;&gt;RabbitMQ&lt;br&gt;&lt;/font&gt;&lt;/b&gt;&lt;img height=&quot;64&quot; width=&quot;64&quot; src=&quot;data:image/png;base64,iVBORw0KGgoAAAANSUhEUgAAAEAAAABACAYAAACqaXHeAAAACXBIWXMAAA7DAAAOwwHHb6hkAAAAGXRFWHRTb2Z0d2FyZQB3d3cuaW5rc2NhcGUub3Jnm+48GgAAA5pJREFUeJzt2k1oHVUUwPFf2oq0ptW2Bj9AXSiK2hKttoggFhQjxYVfoGvduHHXnbhtobhSEDduFEGhG0GlVgXdVAKVNKJZVVHU1mJtSz80LzaJi/tCno+XyZ07897Mw/nDgeTdc+8958ydM3fmXBoaGhoa/r+srdqADG7AI7gDJ9HqoXMN7sYaXBicaf1nm+DQYlvO4eUunUdxpt0+j3exYYA29pW3LTvfKW+220fwQ4/2dwZuaZ84qncAFrEX21doW8COCuwtnSkrB+AyDmS0v1GBvaWTtQKW7vmV2mbyTLSmNJPL5cdV2rPsvh3rYyeqawCmC/RdKzw6o6hrAI4W7H9drGJdA/ClYhubjbGKdQ1AC4cK9L8qVrGuAYD3C/RdiFWscwA+xE+Jff+JVaxzAObxemLfc2UaUiWj+E32pqiX7IydoM6vwzCHU3g6Z7+/cFgIxtAzgq/kXwUH5dgR1p0b8av8QTiCrRXY2xd2Ylb+IMzg5grsLZ17Zb8FZskJjPcadKTfVrcZE/bnV7b/P285wc1GjnEIEwVsOC0E4UTnj/0KwG14BruxC1sydM8I9/c0jrVlCmc7dLbid6wraNdhxYKYyTo8JySelGXaLd9iHx7EfSWNuYjH++H8HnxfopHdcrLEsT4u0/HNeK+PjvdD5nB1Gc7fheM1cChFdi85kZpUdgkJpZRIVsDY0h8pb4Pj+NTwOg8XUztuEb7YVr2Ei0hLjk9m3XxQAweKyqupzk/UwPhY+Q6/dP22gNd0fQLIsxOcFJLfMDAr1AZ2tOWskLdyVY06eUj1VzWvvBTjWOxT4PlIvTqxp8zBuu+nYZDjMY7F5IDrhb34sPG3iBMjMbfAtuK2VMJ6ER99YwIwtrpKLWmJqBDFBGC0uC2VcEzIBZnEBCC6zFQz3opR6vU2uAH3CNGbxh8lGjUovpB4Yuwp/Gn5UdKyvJSGRY5gU4rz1wqPjqodKCIHU52HJ2vgQKqcxospTnfmgF5ncevOBSHZ7fffz+hJbBSCUPXVjJFLeEV2vSGKzp3SnFCAeKDooAPgCtwv5K1JIXeVwii+Uf0VziMzSi6Db8JHA3ZiSjj+3imTOfo/m+psr43QeTyBh4VS17iwMi4KhcXkyTL4Gp93/TaPz8SdYhnYWac7hReMMq/+Kdy6wnwvWP1MwM9ChSqJlOrwBG5JnbCLS0KtLutU1014TO+VcBmfCJXjhoaGhoaGnPwLqkmcFJ/1dU8AAAAASUVORK5CYII=&quot;&gt;&lt;br&gt;&lt;b&gt;&lt;font style=&quot;font-size: 18px;&quot; face=&quot;Comic Sans MS&quot;&gt;Async&lt;/font&gt;&lt;/b&gt;" style="rounded=0;whiteSpace=wrap;html=1;fillColor=#a20025;strokeColor=#6F0000;shadow=1;rotation=1;labelBackgroundColor=none;labelBorderColor=none;textShadow=0;sketch=1;curveFitting=1;jiggle=2;fontColor=#000000;" vertex="1" parent="GkQJpH66xGiW_wHa0gbF-69">
          <mxGeometry x="1067" y="220" width="90" height="120" as="geometry" />
        </mxCell>
        <mxCell id="GkQJpH66xGiW_wHa0gbF-19" value="&lt;b&gt;&lt;font style=&quot;font-size: 18px;&quot; face=&quot;Comic Sans MS&quot;&gt;REST&lt;/font&gt;&lt;/b&gt;&lt;div&gt;&lt;img height=&quot;64&quot; width=&quot;64&quot; src=&quot;data:image/png;base64,iVBORw0KGgoAAAANSUhEUgAAAEAAAABACAYAAACqaXHeAAAACXBIWXMAAA7DAAAOwwHHb6hkAAAAGXRFWHRTb2Z0d2FyZQB3d3cuaW5rc2NhcGUub3Jnm+48GgAABtBJREFUeJzdm2lsFVUUx38tbaEtCBQEBCyrxIUtmCCIJIiKBGlcEsAPqCUmGj8QP0hcEqJEhbjgB0VNTEw0NSEGCEoIfhGMC+4RjWhYRJBNg2ARaIFaaP1w7tCZM3fee3PfzHsP/skkL/PunPM/M3c595xzofCoAB4APgeagePAVmARUFkEPgXFzcDPQGfEtQuYUzR2KWIYsI6wwWfMpe+vB0YUhWnCqAaeAU4TNPAgsBDp8hXm9yHCL+c5oLbgrBNCA7CXoFH/Aa8CvSzta4BlhHvEYeB+oCx1xglhDPAR4W79MXBNDs+PBtZYnv8WmJwC38RQi3zBNoLEfwPmOsi7FfhVyToPNAED8qebHMqQLvoXQbKtyAvpnofsSuBR4ISS3WzuV+QhOxFMAr4k3F03AvUJ6hmMfPkOpWcHcHuCenLGAOBtpEv6Cf0ITE9R73SjQ7/wNcCVKeq9gArgIeAY9i7ZrQAcypEh9zf2IdcjLcUzCHtx3qR0eVpKM6AvsqSeU5z24DbpRmIIYqTudt9RGsvSRGRfYVt2r85HcDXwBHBKCf6T0nRMGoD92B2vni7Cory4y5Lhmwo8b/IsQe6HkI+WFZm8uGsTp5seRiNLsbbjE2Cs7YFqYCXylZPw4koFcxEbdE9+Gd9qUYNMaP5GLcBT5OfFlQq6I7a0EN5b1AC84LvZAawGhhaDacoYitjm9yZXQHDmvLtY7AqIe+iydx90BStaEC/rUkc54jV2IrYHfOvXMePiEkUN8AZd9m4DaCQ4ORwA5heHX6qYj9jmt/WCb/CS+sNbM8cVnGbyGIfYou17UTe8DdipGrUDryEbj4sNfRHu7QRt2onYakVUBOYfCrfdzRdehOoIjhGq4cBmwl2mE/gemJo858QwFeFo474ZsS0S1cgb0jF87R53AO8CgxKn745BCCcdMtPcTyM2VmsBNyJOgb/xWWA50BtYjER9/P+fAB6juPm8SsPBFjRdjHBfTnh3uA9fTx5P+KtvRHZUfvQH3iIcB9wBzErBuGyYZXT7uZw3HPurtrbdYStmldvgu7mH7MnJSUg2V4+xDyhMPm+E0aX1bzXcMmEOYqP3zIcg6elOJKGRa8KhDMnnHVYkzgDPko43WWNk21JnC8k9QjWAruRNMwRfwMCYpHohu0mdDdoPzIspKxPmEQ53tRndccNdA+maHJtBukGcIWDDVcAmwt1yCxERmBwx1sjQcjcZnXGhh8B6T0krQQW2STAX3AHsVrLakVhinxhy+phntBe32+iIC9sk2AJc5zWYQjgI6i2DcfPz3YEnCUeTjwAPknnLXW7aaC/uFBKhjhuhqsW+DO4FbtCNPUcoqfz8FdjzeT8gfofG9cBXqq3XG13yjA3AH0pWGzmEyUdiH3efIT5DXNyE7Lu1N9kE3GIu24vaBkxz0DfecLXNRyOzPexthv61CPAcDZdUmJfP013bdrluvLxUmZ43/GN+GRmGkc2zakeKm3RE9SjwMPFDaHVI1MlGsh1YRfytd7nhcpSwwessuqye6ysWQv6AyBDCEVVvPLt003pgKfC+uZbiNs6nGQ56eK02nCE6ILLSE7JI/ZHJibHl5zuA95AihkJhsNGpP0im+gSbM9UI8JPvxiqyu7HdgEcI1wicBB4HqpxMyg1VRsdJpfuY4ZRt3qhBhqD/hTmHxeuQCKvOz+8CZseQkytmG9l+XecMh7oYcsrpmtNOQ3CtdEmMTMC+7GwARjnI0xhFcMfqX5YnOMgLJUZW+G64psbKgHuRClA/yTPA87hVe9aaZ7VjdtDoiuuY2VJjy0HGxTdKiWty1HM9NekDwIIYchYQjuG7vsyo5OjX+EJjPZCUcVLp8ahu+ymZvcnxpo1tOGX14iywpcfbkDyItZgqalvrWiAxE/hFyfK8SX/YKtPuz2V7HlUgsQXfDjAT7iK8O3QNQFQBS7AHLt8xly3guoT4Adee2AM0vwN3xpRFFeKTJ1UkNQh7UFU7VU24hdxtRVJeGDyv2sF67NXbXyAlanExBemK/tm4w9yb4iBvouGi+a0h2XJdZgLblZJzwJtAPwd5w5FJai5ZMjYR6Gd0a0dsO3I0JxV4pbJ651UKpbLHkahRmq74BdRhL1NNu1h6MlLcZJs34ka0E0FUkqRQ5fIlkazNdmAinxk4Kl1/zNwvqZom78iMjsAmeWTGK9ftnT/d9DCGaG8yn0NTkWWupYoGxAOzfcE4x+YOkmOhcymiGniacObpEHAfMsYrzW99cLLVPBsqZrgYUQ+sJdytzxKeMzpN22FFYZoyZpD58PRO0gmnlRQqkGisd3y+2fxupAjnAP8HlNysNbAIYAgAAAAASUVORK5CYII=&quot;&gt;&lt;b&gt;&lt;font style=&quot;font-size: 18px;&quot; face=&quot;Comic Sans MS&quot;&gt;&lt;br&gt;&lt;/font&gt;&lt;/b&gt;&lt;/div&gt;&lt;div&gt;&lt;font face=&quot;Comic Sans MS&quot;&gt;&lt;span style=&quot;font-size: 18px;&quot;&gt;&lt;b&gt;Sync&lt;/b&gt;&lt;/span&gt;&lt;/font&gt;&lt;/div&gt;" style="rounded=0;whiteSpace=wrap;html=1;fillColor=#a20025;strokeColor=#6F0000;shadow=1;rotation=1;labelBackgroundColor=none;labelBorderColor=none;textShadow=0;sketch=1;curveFitting=1;jiggle=2;fontColor=#000000;" vertex="1" parent="GkQJpH66xGiW_wHa0gbF-69">
          <mxGeometry x="1050" y="-370" width="90" height="110" as="geometry" />
        </mxCell>
        <mxCell id="GkQJpH66xGiW_wHa0gbF-77" style="edgeStyle=orthogonalEdgeStyle;rounded=0;orthogonalLoop=1;jettySize=auto;html=1;shadow=1;strokeColor=default;align=center;verticalAlign=middle;fontFamily=Helvetica;fontSize=11;fontColor=default;labelBackgroundColor=default;endArrow=classic;curved=1;sketch=1;curveFitting=1;jiggle=2;" edge="1" parent="GkQJpH66xGiW_wHa0gbF-69" source="GkQJpH66xGiW_wHa0gbF-78" target="GkQJpH66xGiW_wHa0gbF-82">
          <mxGeometry relative="1" as="geometry">
            <mxPoint x="990" y="-198" as="sourcePoint" />
            <mxPoint x="1182" y="-260" as="targetPoint" />
          </mxGeometry>
        </mxCell>
        <mxCell id="GkQJpH66xGiW_wHa0gbF-78" value="&lt;font face=&quot;Comic Sans MS&quot;&gt;&lt;span style=&quot;font-size: 18px;&quot;&gt;&lt;b&gt;меняет статус выбранного объекта&lt;/b&gt;&lt;/span&gt;&lt;/font&gt;" style="rounded=0;whiteSpace=wrap;html=1;fillColor=#fa6800;strokeColor=#C73500;shadow=1;rotation=1;labelBackgroundColor=none;labelBorderColor=none;textShadow=0;sketch=1;curveFitting=1;jiggle=2;fontColor=#000000;" vertex="1" parent="GkQJpH66xGiW_wHa0gbF-69">
          <mxGeometry x="819" y="-281.8899999999999" width="120" height="127" as="geometry" />
        </mxCell>
        <mxCell id="GkQJpH66xGiW_wHa0gbF-79" value="&lt;font face=&quot;Comic Sans MS&quot;&gt;&lt;span style=&quot;font-size: 18px;&quot;&gt;&lt;b&gt;Заброниро-вать&lt;/b&gt;&lt;/span&gt;&lt;/font&gt;" style="rounded=0;whiteSpace=wrap;html=1;fillColor=#dae8fc;strokeColor=#6c8ebf;shadow=1;rotation=1;labelBackgroundColor=none;labelBorderColor=none;textShadow=0;sketch=1;curveFitting=1;jiggle=2;" vertex="1" parent="GkQJpH66xGiW_wHa0gbF-69">
          <mxGeometry x="676" y="-284.89" width="120" height="127" as="geometry" />
        </mxCell>
        <mxCell id="GkQJpH66xGiW_wHa0gbF-101" style="edgeStyle=orthogonalEdgeStyle;curved=1;rounded=0;sketch=1;jiggle=2;curveFitting=1;orthogonalLoop=1;jettySize=auto;html=1;shadow=1;strokeColor=default;align=center;verticalAlign=middle;fontFamily=Helvetica;fontSize=11;fontColor=default;labelBackgroundColor=default;endArrow=classic;" edge="1" parent="GkQJpH66xGiW_wHa0gbF-69" source="GkQJpH66xGiW_wHa0gbF-80" target="GkQJpH66xGiW_wHa0gbF-98">
          <mxGeometry relative="1" as="geometry">
            <Array as="points">
              <mxPoint x="1730" y="130" />
            </Array>
          </mxGeometry>
        </mxCell>
        <mxCell id="GkQJpH66xGiW_wHa0gbF-80" value="&lt;font face=&quot;Comic Sans MS&quot;&gt;&lt;span style=&quot;font-size: 18px;&quot;&gt;&lt;b&gt;Без резе-&lt;br&gt;рвирования&lt;/b&gt;&lt;/span&gt;&lt;/font&gt;" style="rounded=0;whiteSpace=wrap;html=1;fillColor=#d80073;strokeColor=#A50040;shadow=1;rotation=1;labelBackgroundColor=none;labelBorderColor=none;textShadow=0;sketch=1;curveFitting=1;jiggle=2;fontColor=#000000;" vertex="1" parent="GkQJpH66xGiW_wHa0gbF-69">
          <mxGeometry x="1632" y="-511.9999999999998" width="120" height="127" as="geometry" />
        </mxCell>
        <mxCell id="GkQJpH66xGiW_wHa0gbF-109" style="edgeStyle=orthogonalEdgeStyle;curved=1;rounded=0;sketch=1;jiggle=2;curveFitting=1;orthogonalLoop=1;jettySize=auto;html=1;shadow=1;strokeColor=default;align=center;verticalAlign=middle;fontFamily=Helvetica;fontSize=11;fontColor=default;labelBackgroundColor=default;endArrow=classic;" edge="1" parent="GkQJpH66xGiW_wHa0gbF-69" source="GkQJpH66xGiW_wHa0gbF-81" target="GkQJpH66xGiW_wHa0gbF-106">
          <mxGeometry relative="1" as="geometry" />
        </mxCell>
        <mxCell id="GkQJpH66xGiW_wHa0gbF-115" style="edgeStyle=orthogonalEdgeStyle;curved=1;rounded=0;sketch=1;jiggle=2;curveFitting=1;orthogonalLoop=1;jettySize=auto;html=1;shadow=1;strokeColor=default;align=center;verticalAlign=middle;fontFamily=Helvetica;fontSize=11;fontColor=default;labelBackgroundColor=default;endArrow=classic;" edge="1" parent="GkQJpH66xGiW_wHa0gbF-69" source="GkQJpH66xGiW_wHa0gbF-81" target="GkQJpH66xGiW_wHa0gbF-110">
          <mxGeometry relative="1" as="geometry" />
        </mxCell>
        <mxCell id="GkQJpH66xGiW_wHa0gbF-81" value="&lt;img height=&quot;64&quot; width=&quot;64&quot; src=&quot;data:image/png;base64,iVBORw0KGgoAAAANSUhEUgAAAEAAAABACAYAAACqaXHeAAAACXBIWXMAAA7DAAAOwwHHb6hkAAAAGXRFWHRTb2Z0d2FyZQB3d3cuaW5rc2NhcGUub3Jnm+48GgAAA5pJREFUeJzt2k1oHVUUwPFf2oq0ptW2Bj9AXSiK2hKttoggFhQjxYVfoGvduHHXnbhtobhSEDduFEGhG0GlVgXdVAKVNKJZVVHU1mJtSz80LzaJi/tCno+XyZ07897Mw/nDgeTdc+8958ydM3fmXBoaGhoa/r+srdqADG7AI7gDJ9HqoXMN7sYaXBicaf1nm+DQYlvO4eUunUdxpt0+j3exYYA29pW3LTvfKW+220fwQ4/2dwZuaZ84qncAFrEX21doW8COCuwtnSkrB+AyDmS0v1GBvaWTtQKW7vmV2mbyTLSmNJPL5cdV2rPsvh3rYyeqawCmC/RdKzw6o6hrAI4W7H9drGJdA/ClYhubjbGKdQ1AC4cK9L8qVrGuAYD3C/RdiFWscwA+xE+Jff+JVaxzAObxemLfc2UaUiWj+E32pqiX7IydoM6vwzCHU3g6Z7+/cFgIxtAzgq/kXwUH5dgR1p0b8av8QTiCrRXY2xd2Ylb+IMzg5grsLZ17Zb8FZskJjPcadKTfVrcZE/bnV7b/P285wc1GjnEIEwVsOC0E4UTnj/0KwG14BruxC1sydM8I9/c0jrVlCmc7dLbid6wraNdhxYKYyTo8JySelGXaLd9iHx7EfSWNuYjH++H8HnxfopHdcrLEsT4u0/HNeK+PjvdD5nB1Gc7fheM1cChFdi85kZpUdgkJpZRIVsDY0h8pb4Pj+NTwOg8XUztuEb7YVr2Ei0hLjk9m3XxQAweKyqupzk/UwPhY+Q6/dP22gNd0fQLIsxOcFJLfMDAr1AZ2tOWskLdyVY06eUj1VzWvvBTjWOxT4PlIvTqxp8zBuu+nYZDjMY7F5IDrhb34sPG3iBMjMbfAtuK2VMJ6ER99YwIwtrpKLWmJqBDFBGC0uC2VcEzIBZnEBCC6zFQz3opR6vU2uAH3CNGbxh8lGjUovpB4Yuwp/Gn5UdKyvJSGRY5gU4rz1wqPjqodKCIHU52HJ2vgQKqcxospTnfmgF5ncevOBSHZ7fffz+hJbBSCUPXVjJFLeEV2vSGKzp3SnFCAeKDooAPgCtwv5K1JIXeVwii+Uf0VziMzSi6Db8JHA3ZiSjj+3imTOfo/m+psr43QeTyBh4VS17iwMi4KhcXkyTL4Gp93/TaPz8SdYhnYWac7hReMMq/+Kdy6wnwvWP1MwM9ChSqJlOrwBG5JnbCLS0KtLutU1014TO+VcBmfCJXjhoaGhoaGnPwLqkmcFJ/1dU8AAAAASUVORK5CYII=&quot;&gt;" style="shape=hexagon;perimeter=hexagonPerimeter2;whiteSpace=wrap;html=1;fixedSize=1;rounded=0;shadow=1;glass=0;sketch=1;jiggle=2;curveFitting=1;strokeColor=#BD7000;align=center;verticalAlign=middle;fontFamily=Helvetica;fontSize=12;fontColor=#000000;labelBorderColor=none;labelBackgroundColor=none;fillColor=#f0a30a;" vertex="1" parent="GkQJpH66xGiW_wHa0gbF-69">
          <mxGeometry x="1240" y="300" width="160" height="120" as="geometry" />
        </mxCell>
        <mxCell id="GkQJpH66xGiW_wHa0gbF-94" style="edgeStyle=orthogonalEdgeStyle;curved=1;rounded=0;sketch=1;jiggle=2;curveFitting=1;orthogonalLoop=1;jettySize=auto;html=1;shadow=1;strokeColor=default;align=center;verticalAlign=middle;fontFamily=Helvetica;fontSize=11;fontColor=default;labelBackgroundColor=default;endArrow=classic;" edge="1" parent="GkQJpH66xGiW_wHa0gbF-69" source="GkQJpH66xGiW_wHa0gbF-82" target="GkQJpH66xGiW_wHa0gbF-89">
          <mxGeometry relative="1" as="geometry" />
        </mxCell>
        <mxCell id="GkQJpH66xGiW_wHa0gbF-82" value="&lt;font face=&quot;Comic Sans MS&quot;&gt;&lt;span style=&quot;font-size: 18px;&quot;&gt;&lt;b&gt;запрос условий бронирования&lt;/b&gt;&lt;/span&gt;&lt;/font&gt;" style="rounded=0;whiteSpace=wrap;html=1;fillColor=#dae8fc;strokeColor=#6c8ebf;shadow=1;rotation=1;labelBackgroundColor=none;labelBorderColor=none;textShadow=0;sketch=1;curveFitting=1;jiggle=2;" vertex="1" parent="GkQJpH66xGiW_wHa0gbF-69">
          <mxGeometry x="1772" y="-512" width="140" height="127" as="geometry" />
        </mxCell>
        <mxCell id="GkQJpH66xGiW_wHa0gbF-83" value="&lt;font face=&quot;Comic Sans MS&quot;&gt;&lt;span style=&quot;font-size: 18px;&quot;&gt;&lt;b&gt;анализ статистики арендатора и расчет предоплаты&lt;/b&gt;&lt;/span&gt;&lt;/font&gt;" style="rounded=0;whiteSpace=wrap;html=1;fillColor=#fa6800;strokeColor=#C73500;shadow=1;rotation=1;labelBackgroundColor=none;labelBorderColor=none;textShadow=0;sketch=1;curveFitting=1;jiggle=2;fontColor=#000000;" vertex="1" parent="GkQJpH66xGiW_wHa0gbF-69">
          <mxGeometry x="1942" y="-511.9999999999999" width="120" height="127" as="geometry" />
        </mxCell>
        <mxCell id="GkQJpH66xGiW_wHa0gbF-84" value="&lt;font face=&quot;Comic Sans MS&quot;&gt;&lt;span style=&quot;font-size: 18px;&quot;&gt;&lt;b&gt;статиситка арендаторов&lt;/b&gt;&lt;/span&gt;&lt;/font&gt;" style="rounded=0;whiteSpace=wrap;html=1;fillColor=#60a917;strokeColor=#2D7600;shadow=1;rotation=1;labelBackgroundColor=none;labelBorderColor=none;textShadow=0;sketch=1;curveFitting=1;jiggle=2;fontColor=#000000;" vertex="1" parent="GkQJpH66xGiW_wHa0gbF-69">
          <mxGeometry x="2102" y="-512" width="120" height="127" as="geometry" />
        </mxCell>
        <mxCell id="GkQJpH66xGiW_wHa0gbF-86" value="&lt;font face=&quot;Comic Sans MS&quot;&gt;&lt;span style=&quot;font-size: 18px;&quot;&gt;&lt;b&gt;резервирование денежных&lt;/b&gt;&lt;/span&gt;&lt;/font&gt;" style="rounded=0;whiteSpace=wrap;html=1;fillColor=#dae8fc;strokeColor=#6c8ebf;shadow=1;rotation=1;labelBackgroundColor=none;labelBorderColor=none;textShadow=0;sketch=1;curveFitting=1;jiggle=2;" vertex="1" parent="GkQJpH66xGiW_wHa0gbF-69">
          <mxGeometry x="1762" y="8" width="140" height="127" as="geometry" />
        </mxCell>
        <mxCell id="GkQJpH66xGiW_wHa0gbF-87" value="&lt;font face=&quot;Comic Sans MS&quot;&gt;&lt;span style=&quot;font-size: 18px;&quot;&gt;&lt;b&gt;проведение транзакции резервирования&lt;/b&gt;&lt;/span&gt;&lt;/font&gt;" style="rounded=0;whiteSpace=wrap;html=1;fillColor=#fa6800;strokeColor=#C73500;shadow=1;rotation=1;labelBackgroundColor=none;labelBorderColor=none;textShadow=0;sketch=1;curveFitting=1;jiggle=2;fontColor=#000000;" vertex="1" parent="GkQJpH66xGiW_wHa0gbF-69">
          <mxGeometry x="1932" y="8.000000000000114" width="120" height="127" as="geometry" />
        </mxCell>
        <mxCell id="GkQJpH66xGiW_wHa0gbF-88" value="&lt;font face=&quot;Comic Sans MS&quot;&gt;&lt;span style=&quot;font-size: 18px;&quot;&gt;&lt;b&gt;история транзакций, чеки&lt;/b&gt;&lt;/span&gt;&lt;/font&gt;" style="rounded=0;whiteSpace=wrap;html=1;fillColor=#60a917;strokeColor=#2D7600;shadow=1;rotation=1;labelBackgroundColor=none;labelBorderColor=none;textShadow=0;sketch=1;curveFitting=1;jiggle=2;fontColor=#000000;" vertex="1" parent="GkQJpH66xGiW_wHa0gbF-69">
          <mxGeometry x="2072" y="8" width="120" height="127" as="geometry" />
        </mxCell>
        <mxCell id="GkQJpH66xGiW_wHa0gbF-93" style="edgeStyle=orthogonalEdgeStyle;curved=1;rounded=0;sketch=1;jiggle=2;curveFitting=1;orthogonalLoop=1;jettySize=auto;html=1;shadow=1;strokeColor=default;align=center;verticalAlign=middle;fontFamily=Helvetica;fontSize=11;fontColor=default;labelBackgroundColor=default;endArrow=classic;" edge="1" parent="GkQJpH66xGiW_wHa0gbF-69" source="GkQJpH66xGiW_wHa0gbF-89" target="GkQJpH66xGiW_wHa0gbF-86">
          <mxGeometry relative="1" as="geometry">
            <Array as="points">
              <mxPoint x="1652" y="-68" />
              <mxPoint x="1652" y="12" />
            </Array>
          </mxGeometry>
        </mxCell>
        <mxCell id="GkQJpH66xGiW_wHa0gbF-89" value="&lt;font face=&quot;Comic Sans MS&quot;&gt;&lt;span style=&quot;font-size: 18px;&quot;&gt;&lt;b&gt;запрос информации карты клиента&lt;/b&gt;&lt;/span&gt;&lt;/font&gt;" style="rounded=0;whiteSpace=wrap;html=1;fillColor=#dae8fc;strokeColor=#6c8ebf;shadow=1;rotation=1;labelBackgroundColor=none;labelBorderColor=none;textShadow=0;sketch=1;curveFitting=1;jiggle=2;" vertex="1" parent="GkQJpH66xGiW_wHa0gbF-69">
          <mxGeometry x="1762" y="-132" width="140" height="127" as="geometry" />
        </mxCell>
        <mxCell id="GkQJpH66xGiW_wHa0gbF-90" value="&lt;font face=&quot;Comic Sans MS&quot;&gt;&lt;span style=&quot;font-size: 18px;&quot;&gt;&lt;b&gt;выводится форма параметров карты&lt;/b&gt;&lt;/span&gt;&lt;/font&gt;" style="rounded=0;whiteSpace=wrap;html=1;fillColor=#fa6800;strokeColor=#C73500;shadow=1;rotation=1;labelBackgroundColor=none;labelBorderColor=none;textShadow=0;sketch=1;curveFitting=1;jiggle=2;fontColor=#000000;" vertex="1" parent="GkQJpH66xGiW_wHa0gbF-69">
          <mxGeometry x="1932" y="-131.9999999999999" width="120" height="127" as="geometry" />
        </mxCell>
        <mxCell id="GkQJpH66xGiW_wHa0gbF-95" value="&lt;b&gt;&lt;font style=&quot;font-size: 18px;&quot; face=&quot;Comic Sans MS&quot;&gt;REST&lt;/font&gt;&lt;/b&gt;&lt;div&gt;&lt;img height=&quot;64&quot; width=&quot;64&quot; src=&quot;data:image/png;base64,iVBORw0KGgoAAAANSUhEUgAAAEAAAABACAYAAACqaXHeAAAACXBIWXMAAA7DAAAOwwHHb6hkAAAAGXRFWHRTb2Z0d2FyZQB3d3cuaW5rc2NhcGUub3Jnm+48GgAABtBJREFUeJzdm2lsFVUUx38tbaEtCBQEBCyrxIUtmCCIJIiKBGlcEsAPqCUmGj8QP0hcEqJEhbjgB0VNTEw0NSEGCEoIfhGMC+4RjWhYRJBNg2ARaIFaaP1w7tCZM3fee3PfzHsP/skkL/PunPM/M3c595xzofCoAB4APgeagePAVmARUFkEPgXFzcDPQGfEtQuYUzR2KWIYsI6wwWfMpe+vB0YUhWnCqAaeAU4TNPAgsBDp8hXm9yHCL+c5oLbgrBNCA7CXoFH/Aa8CvSzta4BlhHvEYeB+oCx1xglhDPAR4W79MXBNDs+PBtZYnv8WmJwC38RQi3zBNoLEfwPmOsi7FfhVyToPNAED8qebHMqQLvoXQbKtyAvpnofsSuBR4ISS3WzuV+QhOxFMAr4k3F03AvUJ6hmMfPkOpWcHcHuCenLGAOBtpEv6Cf0ITE9R73SjQ7/wNcCVKeq9gArgIeAY9i7ZrQAcypEh9zf2IdcjLcUzCHtx3qR0eVpKM6AvsqSeU5z24DbpRmIIYqTudt9RGsvSRGRfYVt2r85HcDXwBHBKCf6T0nRMGoD92B2vni7Cory4y5Lhmwo8b/IsQe6HkI+WFZm8uGsTp5seRiNLsbbjE2Cs7YFqYCXylZPw4koFcxEbdE9+Gd9qUYNMaP5GLcBT5OfFlQq6I7a0EN5b1AC84LvZAawGhhaDacoYitjm9yZXQHDmvLtY7AqIe+iydx90BStaEC/rUkc54jV2IrYHfOvXMePiEkUN8AZd9m4DaCQ4ORwA5heHX6qYj9jmt/WCb/CS+sNbM8cVnGbyGIfYou17UTe8DdipGrUDryEbj4sNfRHu7QRt2onYakVUBOYfCrfdzRdehOoIjhGq4cBmwl2mE/gemJo858QwFeFo474ZsS0S1cgb0jF87R53AO8CgxKn745BCCcdMtPcTyM2VmsBNyJOgb/xWWA50BtYjER9/P+fAB6juPm8SsPBFjRdjHBfTnh3uA9fTx5P+KtvRHZUfvQH3iIcB9wBzErBuGyYZXT7uZw3HPurtrbdYStmldvgu7mH7MnJSUg2V4+xDyhMPm+E0aX1bzXcMmEOYqP3zIcg6elOJKGRa8KhDMnnHVYkzgDPko43WWNk21JnC8k9QjWAruRNMwRfwMCYpHohu0mdDdoPzIspKxPmEQ53tRndccNdA+maHJtBukGcIWDDVcAmwt1yCxERmBwx1sjQcjcZnXGhh8B6T0krQQW2STAX3AHsVrLakVhinxhy+phntBe32+iIC9sk2AJc5zWYQjgI6i2DcfPz3YEnCUeTjwAPknnLXW7aaC/uFBKhjhuhqsW+DO4FbtCNPUcoqfz8FdjzeT8gfofG9cBXqq3XG13yjA3AH0pWGzmEyUdiH3efIT5DXNyE7Lu1N9kE3GIu24vaBkxz0DfecLXNRyOzPexthv61CPAcDZdUmJfP013bdrluvLxUmZ43/GN+GRmGkc2zakeKm3RE9SjwMPFDaHVI1MlGsh1YRfytd7nhcpSwwessuqye6ysWQv6AyBDCEVVvPLt003pgKfC+uZbiNs6nGQ56eK02nCE6ILLSE7JI/ZHJibHl5zuA95AihkJhsNGpP0im+gSbM9UI8JPvxiqyu7HdgEcI1wicBB4HqpxMyg1VRsdJpfuY4ZRt3qhBhqD/hTmHxeuQCKvOz+8CZseQkytmG9l+XecMh7oYcsrpmtNOQ3CtdEmMTMC+7GwARjnI0xhFcMfqX5YnOMgLJUZW+G64psbKgHuRClA/yTPA87hVe9aaZ7VjdtDoiuuY2VJjy0HGxTdKiWty1HM9NekDwIIYchYQjuG7vsyo5OjX+EJjPZCUcVLp8ahu+ymZvcnxpo1tOGX14iywpcfbkDyItZgqalvrWiAxE/hFyfK8SX/YKtPuz2V7HlUgsQXfDjAT7iK8O3QNQFQBS7AHLt8xly3guoT4Adee2AM0vwN3xpRFFeKTJ1UkNQh7UFU7VU24hdxtRVJeGDyv2sF67NXbXyAlanExBemK/tm4w9yb4iBvouGi+a0h2XJdZgLblZJzwJtAPwd5w5FJai5ZMjYR6Gd0a0dsO3I0JxV4pbJ651UKpbLHkahRmq74BdRhL1NNu1h6MlLcZJs34ka0E0FUkqRQ5fIlkazNdmAinxk4Kl1/zNwvqZom78iMjsAmeWTGK9ftnT/d9DCGaG8yn0NTkWWupYoGxAOzfcE4x+YOkmOhcymiGniacObpEHAfMsYrzW99cLLVPBsqZrgYUQ+sJdytzxKeMzpN22FFYZoyZpD58PRO0gmnlRQqkGisd3y+2fxupAjnAP8HlNysNbAIYAgAAAAASUVORK5CYII=&quot;&gt;&lt;b&gt;&lt;font style=&quot;font-size: 18px;&quot; face=&quot;Comic Sans MS&quot;&gt;&lt;br&gt;&lt;/font&gt;&lt;/b&gt;&lt;/div&gt;&lt;div&gt;&lt;font face=&quot;Comic Sans MS&quot;&gt;&lt;span style=&quot;font-size: 18px;&quot;&gt;&lt;b&gt;Sync&lt;/b&gt;&lt;/span&gt;&lt;/font&gt;&lt;/div&gt;" style="rounded=0;whiteSpace=wrap;html=1;fillColor=#a20025;strokeColor=#6F0000;shadow=1;rotation=1;labelBackgroundColor=none;labelBorderColor=none;textShadow=0;sketch=1;curveFitting=1;jiggle=2;fontColor=#000000;" vertex="1" parent="GkQJpH66xGiW_wHa0gbF-69">
          <mxGeometry x="1732" y="-262" width="90" height="110" as="geometry" />
        </mxCell>
        <mxCell id="GkQJpH66xGiW_wHa0gbF-102" style="edgeStyle=orthogonalEdgeStyle;curved=1;rounded=0;sketch=1;jiggle=2;curveFitting=1;orthogonalLoop=1;jettySize=auto;html=1;shadow=1;strokeColor=default;align=center;verticalAlign=middle;fontFamily=Helvetica;fontSize=11;fontColor=default;labelBackgroundColor=default;endArrow=classic;" edge="1" parent="GkQJpH66xGiW_wHa0gbF-69" source="GkQJpH66xGiW_wHa0gbF-96" target="GkQJpH66xGiW_wHa0gbF-98">
          <mxGeometry relative="1" as="geometry">
            <Array as="points">
              <mxPoint x="1720" y="190" />
            </Array>
          </mxGeometry>
        </mxCell>
        <mxCell id="GkQJpH66xGiW_wHa0gbF-96" value="&lt;font face=&quot;Comic Sans MS&quot;&gt;&lt;span style=&quot;font-size: 18px;&quot;&gt;&lt;b&gt;если успешно&lt;/b&gt;&lt;/span&gt;&lt;/font&gt;" style="rounded=0;whiteSpace=wrap;html=1;fillColor=#d80073;strokeColor=#A50040;shadow=1;rotation=1;labelBackgroundColor=none;labelBorderColor=none;textShadow=0;sketch=1;curveFitting=1;jiggle=2;fontColor=#000000;" vertex="1" parent="GkQJpH66xGiW_wHa0gbF-69">
          <mxGeometry x="1622" y="8.000000000000227" width="120" height="127" as="geometry" />
        </mxCell>
        <mxCell id="GkQJpH66xGiW_wHa0gbF-98" value="&lt;font face=&quot;Comic Sans MS&quot;&gt;&lt;span style=&quot;font-size: 18px;&quot;&gt;&lt;b&gt;смена статуса&lt;/b&gt;&lt;/span&gt;&lt;/font&gt;" style="rounded=0;whiteSpace=wrap;html=1;fillColor=#dae8fc;strokeColor=#6c8ebf;shadow=1;rotation=1;labelBackgroundColor=none;labelBorderColor=none;textShadow=0;sketch=1;curveFitting=1;jiggle=2;" vertex="1" parent="GkQJpH66xGiW_wHa0gbF-69">
          <mxGeometry x="806" y="128" width="107" height="127" as="geometry" />
        </mxCell>
        <mxCell id="GkQJpH66xGiW_wHa0gbF-105" style="edgeStyle=orthogonalEdgeStyle;curved=1;rounded=0;sketch=1;jiggle=2;curveFitting=1;orthogonalLoop=1;jettySize=auto;html=1;shadow=1;strokeColor=default;align=center;verticalAlign=middle;fontFamily=Helvetica;fontSize=11;fontColor=default;labelBackgroundColor=default;endArrow=classic;" edge="1" parent="GkQJpH66xGiW_wHa0gbF-69" source="GkQJpH66xGiW_wHa0gbF-99" target="GkQJpH66xGiW_wHa0gbF-81">
          <mxGeometry relative="1" as="geometry">
            <Array as="points">
              <mxPoint x="713" y="360" />
            </Array>
          </mxGeometry>
        </mxCell>
        <mxCell id="GkQJpH66xGiW_wHa0gbF-99" value="&lt;font face=&quot;Comic Sans MS&quot;&gt;&lt;span style=&quot;font-size: 18px;&quot;&gt;&lt;b&gt;изменяется статус объекта аренды&lt;/b&gt;&lt;/span&gt;&lt;/font&gt;" style="rounded=0;whiteSpace=wrap;html=1;fillColor=#fa6800;strokeColor=#C73500;shadow=1;rotation=1;labelBackgroundColor=none;labelBorderColor=none;textShadow=0;sketch=1;curveFitting=1;jiggle=2;fontColor=#000000;" vertex="1" parent="GkQJpH66xGiW_wHa0gbF-69">
          <mxGeometry x="659" y="128.0000000000001" width="120" height="127" as="geometry" />
        </mxCell>
        <mxCell id="GkQJpH66xGiW_wHa0gbF-100" value="&lt;font face=&quot;Comic Sans MS&quot;&gt;&lt;span style=&quot;font-size: 18px;&quot;&gt;&lt;b&gt;история использо-вания объектов аренды&lt;/b&gt;&lt;/span&gt;&lt;/font&gt;" style="rounded=0;whiteSpace=wrap;html=1;fillColor=#60a917;strokeColor=#2D7600;shadow=1;rotation=1;labelBackgroundColor=none;labelBorderColor=none;textShadow=0;sketch=1;curveFitting=1;jiggle=2;fontColor=#000000;" vertex="1" parent="GkQJpH66xGiW_wHa0gbF-69">
          <mxGeometry x="506" y="115" width="120" height="127" as="geometry" />
        </mxCell>
        <mxCell id="GkQJpH66xGiW_wHa0gbF-103" value="&lt;b&gt;&lt;font style=&quot;font-size: 18px;&quot; face=&quot;Comic Sans MS&quot;&gt;REST&lt;/font&gt;&lt;/b&gt;&lt;div&gt;&lt;img height=&quot;64&quot; width=&quot;64&quot; src=&quot;data:image/png;base64,iVBORw0KGgoAAAANSUhEUgAAAEAAAABACAYAAACqaXHeAAAACXBIWXMAAA7DAAAOwwHHb6hkAAAAGXRFWHRTb2Z0d2FyZQB3d3cuaW5rc2NhcGUub3Jnm+48GgAABtBJREFUeJzdm2lsFVUUx38tbaEtCBQEBCyrxIUtmCCIJIiKBGlcEsAPqCUmGj8QP0hcEqJEhbjgB0VNTEw0NSEGCEoIfhGMC+4RjWhYRJBNg2ARaIFaaP1w7tCZM3fee3PfzHsP/skkL/PunPM/M3c595xzofCoAB4APgeagePAVmARUFkEPgXFzcDPQGfEtQuYUzR2KWIYsI6wwWfMpe+vB0YUhWnCqAaeAU4TNPAgsBDp8hXm9yHCL+c5oLbgrBNCA7CXoFH/Aa8CvSzta4BlhHvEYeB+oCx1xglhDPAR4W79MXBNDs+PBtZYnv8WmJwC38RQi3zBNoLEfwPmOsi7FfhVyToPNAED8qebHMqQLvoXQbKtyAvpnofsSuBR4ISS3WzuV+QhOxFMAr4k3F03AvUJ6hmMfPkOpWcHcHuCenLGAOBtpEv6Cf0ITE9R73SjQ7/wNcCVKeq9gArgIeAY9i7ZrQAcypEh9zf2IdcjLcUzCHtx3qR0eVpKM6AvsqSeU5z24DbpRmIIYqTudt9RGsvSRGRfYVt2r85HcDXwBHBKCf6T0nRMGoD92B2vni7Cory4y5Lhmwo8b/IsQe6HkI+WFZm8uGsTp5seRiNLsbbjE2Cs7YFqYCXylZPw4koFcxEbdE9+Gd9qUYNMaP5GLcBT5OfFlQq6I7a0EN5b1AC84LvZAawGhhaDacoYitjm9yZXQHDmvLtY7AqIe+iydx90BStaEC/rUkc54jV2IrYHfOvXMePiEkUN8AZd9m4DaCQ4ORwA5heHX6qYj9jmt/WCb/CS+sNbM8cVnGbyGIfYou17UTe8DdipGrUDryEbj4sNfRHu7QRt2onYakVUBOYfCrfdzRdehOoIjhGq4cBmwl2mE/gemJo858QwFeFo474ZsS0S1cgb0jF87R53AO8CgxKn745BCCcdMtPcTyM2VmsBNyJOgb/xWWA50BtYjER9/P+fAB6juPm8SsPBFjRdjHBfTnh3uA9fTx5P+KtvRHZUfvQH3iIcB9wBzErBuGyYZXT7uZw3HPurtrbdYStmldvgu7mH7MnJSUg2V4+xDyhMPm+E0aX1bzXcMmEOYqP3zIcg6elOJKGRa8KhDMnnHVYkzgDPko43WWNk21JnC8k9QjWAruRNMwRfwMCYpHohu0mdDdoPzIspKxPmEQ53tRndccNdA+maHJtBukGcIWDDVcAmwt1yCxERmBwx1sjQcjcZnXGhh8B6T0krQQW2STAX3AHsVrLakVhinxhy+phntBe32+iIC9sk2AJc5zWYQjgI6i2DcfPz3YEnCUeTjwAPknnLXW7aaC/uFBKhjhuhqsW+DO4FbtCNPUcoqfz8FdjzeT8gfofG9cBXqq3XG13yjA3AH0pWGzmEyUdiH3efIT5DXNyE7Lu1N9kE3GIu24vaBkxz0DfecLXNRyOzPexthv61CPAcDZdUmJfP013bdrluvLxUmZ43/GN+GRmGkc2zakeKm3RE9SjwMPFDaHVI1MlGsh1YRfytd7nhcpSwwessuqye6ysWQv6AyBDCEVVvPLt003pgKfC+uZbiNs6nGQ56eK02nCE6ILLSE7JI/ZHJibHl5zuA95AihkJhsNGpP0im+gSbM9UI8JPvxiqyu7HdgEcI1wicBB4HqpxMyg1VRsdJpfuY4ZRt3qhBhqD/hTmHxeuQCKvOz+8CZseQkytmG9l+XecMh7oYcsrpmtNOQ3CtdEmMTMC+7GwARjnI0xhFcMfqX5YnOMgLJUZW+G64psbKgHuRClA/yTPA87hVe9aaZ7VjdtDoiuuY2VJjy0HGxTdKiWty1HM9NekDwIIYchYQjuG7vsyo5OjX+EJjPZCUcVLp8ahu+ymZvcnxpo1tOGX14iywpcfbkDyItZgqalvrWiAxE/hFyfK8SX/YKtPuz2V7HlUgsQXfDjAT7iK8O3QNQFQBS7AHLt8xly3guoT4Adee2AM0vwN3xpRFFeKTJ1UkNQh7UFU7VU24hdxtRVJeGDyv2sF67NXbXyAlanExBemK/tm4w9yb4iBvouGi+a0h2XJdZgLblZJzwJtAPwd5w5FJai5ZMjYR6Gd0a0dsO3I0JxV4pbJ651UKpbLHkahRmq74BdRhL1NNu1h6MlLcZJs34ka0E0FUkqRQ5fIlkazNdmAinxk4Kl1/zNwvqZom78iMjsAmeWTGK9ftnT/d9DCGaG8yn0NTkWWupYoGxAOzfcE4x+YOkmOhcymiGniacObpEHAfMsYrzW99cLLVPBsqZrgYUQ+sJdytzxKeMzpN22FFYZoyZpD58PRO0gmnlRQqkGisd3y+2fxupAjnAP8HlNysNbAIYAgAAAAASUVORK5CYII=&quot;&gt;&lt;b&gt;&lt;font style=&quot;font-size: 18px;&quot; face=&quot;Comic Sans MS&quot;&gt;&lt;br&gt;&lt;/font&gt;&lt;/b&gt;&lt;/div&gt;&lt;div&gt;&lt;font face=&quot;Comic Sans MS&quot;&gt;&lt;span style=&quot;font-size: 18px;&quot;&gt;&lt;b&gt;Sync&lt;/b&gt;&lt;/span&gt;&lt;/font&gt;&lt;/div&gt;" style="rounded=0;whiteSpace=wrap;html=1;fillColor=#a20025;strokeColor=#6F0000;shadow=1;rotation=1;labelBackgroundColor=none;labelBorderColor=none;textShadow=0;sketch=1;curveFitting=1;jiggle=2;fontColor=#000000;" vertex="1" parent="GkQJpH66xGiW_wHa0gbF-69">
          <mxGeometry x="1310" y="-50" width="90" height="110" as="geometry" />
        </mxCell>
        <mxCell id="GkQJpH66xGiW_wHa0gbF-106" value="&lt;font face=&quot;Comic Sans MS&quot;&gt;&lt;span style=&quot;font-size: 18px;&quot;&gt;&lt;b&gt;открыть новую чат комнату&lt;/b&gt;&lt;/span&gt;&lt;/font&gt;" style="rounded=0;whiteSpace=wrap;html=1;fillColor=#dae8fc;strokeColor=#6c8ebf;shadow=1;rotation=1;labelBackgroundColor=none;labelBorderColor=none;textShadow=0;sketch=1;curveFitting=1;jiggle=2;" vertex="1" parent="GkQJpH66xGiW_wHa0gbF-69">
          <mxGeometry x="1050" y="520" width="107" height="127" as="geometry" />
        </mxCell>
        <mxCell id="GkQJpH66xGiW_wHa0gbF-107" value="&lt;font face=&quot;Comic Sans MS&quot;&gt;&lt;span style=&quot;font-size: 18px;&quot;&gt;&lt;b&gt;создание чата и информи-рование&lt;/b&gt;&lt;/span&gt;&lt;/font&gt;" style="rounded=0;whiteSpace=wrap;html=1;fillColor=#fa6800;strokeColor=#C73500;shadow=1;rotation=1;labelBackgroundColor=none;labelBorderColor=none;textShadow=0;sketch=1;curveFitting=1;jiggle=2;fontColor=#000000;" vertex="1" parent="GkQJpH66xGiW_wHa0gbF-69">
          <mxGeometry x="897" y="520.0000000000001" width="120" height="127" as="geometry" />
        </mxCell>
        <mxCell id="GkQJpH66xGiW_wHa0gbF-108" value="&lt;font face=&quot;Comic Sans MS&quot;&gt;&lt;span style=&quot;font-size: 18px;&quot;&gt;&lt;b&gt;хранилище переписки арендаторов и собствен-ников&lt;/b&gt;&lt;/span&gt;&lt;/font&gt;" style="rounded=0;whiteSpace=wrap;html=1;fillColor=#60a917;strokeColor=#2D7600;shadow=1;rotation=1;labelBackgroundColor=none;labelBorderColor=none;textShadow=0;sketch=1;curveFitting=1;jiggle=2;fontColor=#000000;" vertex="1" parent="GkQJpH66xGiW_wHa0gbF-69">
          <mxGeometry x="750" y="520" width="120" height="127" as="geometry" />
        </mxCell>
        <mxCell id="GkQJpH66xGiW_wHa0gbF-110" value="&lt;font face=&quot;Comic Sans MS&quot;&gt;&lt;span style=&quot;font-size: 18px;&quot;&gt;&lt;b&gt;выдать рекомен-дации&lt;/b&gt;&lt;/span&gt;&lt;/font&gt;" style="rounded=0;whiteSpace=wrap;html=1;fillColor=#dae8fc;strokeColor=#6c8ebf;shadow=1;rotation=1;labelBackgroundColor=none;labelBorderColor=none;textShadow=0;sketch=1;curveFitting=1;jiggle=2;" vertex="1" parent="GkQJpH66xGiW_wHa0gbF-69">
          <mxGeometry x="1510" y="520" width="107" height="127" as="geometry" />
        </mxCell>
        <mxCell id="GkQJpH66xGiW_wHa0gbF-113" value="&lt;font face=&quot;Comic Sans MS&quot;&gt;&lt;span style=&quot;font-size: 18px;&quot;&gt;&lt;b&gt;архив рекомен-даций&lt;/b&gt;&lt;/span&gt;&lt;/font&gt;" style="rounded=0;whiteSpace=wrap;html=1;fillColor=#60a917;strokeColor=#2D7600;shadow=1;rotation=1;labelBackgroundColor=none;labelBorderColor=none;textShadow=0;sketch=1;curveFitting=1;jiggle=2;fontColor=#000000;" vertex="1" parent="GkQJpH66xGiW_wHa0gbF-69">
          <mxGeometry x="1220" y="520" width="120" height="127" as="geometry" />
        </mxCell>
        <mxCell id="GkQJpH66xGiW_wHa0gbF-114" value="&lt;font face=&quot;Comic Sans MS&quot;&gt;&lt;span style=&quot;font-size: 18px;&quot;&gt;&lt;b&gt;обновление списка рекомен-даций&lt;/b&gt;&lt;/span&gt;&lt;/font&gt;" style="rounded=0;whiteSpace=wrap;html=1;fillColor=#fa6800;strokeColor=#C73500;shadow=1;rotation=1;labelBackgroundColor=none;labelBorderColor=none;textShadow=0;sketch=1;curveFitting=1;jiggle=2;fontColor=#000000;" vertex="1" parent="GkQJpH66xGiW_wHa0gbF-69">
          <mxGeometry x="1367" y="520.0000000000001" width="120" height="127" as="geometry" />
        </mxCell>
        <mxCell id="GkQJpH66xGiW_wHa0gbF-116" value="&lt;b&gt;&lt;font style=&quot;font-size: 18px;&quot; face=&quot;Comic Sans MS&quot;&gt;RabbitMQ&lt;br&gt;&lt;/font&gt;&lt;/b&gt;&lt;img height=&quot;64&quot; width=&quot;64&quot; src=&quot;data:image/png;base64,iVBORw0KGgoAAAANSUhEUgAAAEAAAABACAYAAACqaXHeAAAACXBIWXMAAA7DAAAOwwHHb6hkAAAAGXRFWHRTb2Z0d2FyZQB3d3cuaW5rc2NhcGUub3Jnm+48GgAAA5pJREFUeJzt2k1oHVUUwPFf2oq0ptW2Bj9AXSiK2hKttoggFhQjxYVfoGvduHHXnbhtobhSEDduFEGhG0GlVgXdVAKVNKJZVVHU1mJtSz80LzaJi/tCno+XyZ07897Mw/nDgeTdc+8958ydM3fmXBoaGhoa/r+srdqADG7AI7gDJ9HqoXMN7sYaXBicaf1nm+DQYlvO4eUunUdxpt0+j3exYYA29pW3LTvfKW+220fwQ4/2dwZuaZ84qncAFrEX21doW8COCuwtnSkrB+AyDmS0v1GBvaWTtQKW7vmV2mbyTLSmNJPL5cdV2rPsvh3rYyeqawCmC/RdKzw6o6hrAI4W7H9drGJdA/ClYhubjbGKdQ1AC4cK9L8qVrGuAYD3C/RdiFWscwA+xE+Jff+JVaxzAObxemLfc2UaUiWj+E32pqiX7IydoM6vwzCHU3g6Z7+/cFgIxtAzgq/kXwUH5dgR1p0b8av8QTiCrRXY2xd2Ylb+IMzg5grsLZ17Zb8FZskJjPcadKTfVrcZE/bnV7b/P285wc1GjnEIEwVsOC0E4UTnj/0KwG14BruxC1sydM8I9/c0jrVlCmc7dLbid6wraNdhxYKYyTo8JySelGXaLd9iHx7EfSWNuYjH++H8HnxfopHdcrLEsT4u0/HNeK+PjvdD5nB1Gc7fheM1cChFdi85kZpUdgkJpZRIVsDY0h8pb4Pj+NTwOg8XUztuEb7YVr2Ei0hLjk9m3XxQAweKyqupzk/UwPhY+Q6/dP22gNd0fQLIsxOcFJLfMDAr1AZ2tOWskLdyVY06eUj1VzWvvBTjWOxT4PlIvTqxp8zBuu+nYZDjMY7F5IDrhb34sPG3iBMjMbfAtuK2VMJ6ER99YwIwtrpKLWmJqBDFBGC0uC2VcEzIBZnEBCC6zFQz3opR6vU2uAH3CNGbxh8lGjUovpB4Yuwp/Gn5UdKyvJSGRY5gU4rz1wqPjqodKCIHU52HJ2vgQKqcxospTnfmgF5ncevOBSHZ7fffz+hJbBSCUPXVjJFLeEV2vSGKzp3SnFCAeKDooAPgCtwv5K1JIXeVwii+Uf0VziMzSi6Db8JHA3ZiSjj+3imTOfo/m+psr43QeTyBh4VS17iwMi4KhcXkyTL4Gp93/TaPz8SdYhnYWac7hReMMq/+Kdy6wnwvWP1MwM9ChSqJlOrwBG5JnbCLS0KtLutU1014TO+VcBmfCJXjhoaGhoaGnPwLqkmcFJ/1dU8AAAAASUVORK5CYII=&quot;&gt;&lt;br&gt;&lt;b&gt;&lt;font style=&quot;font-size: 18px;&quot; face=&quot;Comic Sans MS&quot;&gt;Async&lt;/font&gt;&lt;/b&gt;" style="rounded=0;whiteSpace=wrap;html=1;fillColor=#a20025;strokeColor=#6F0000;shadow=1;rotation=1;labelBackgroundColor=none;labelBorderColor=none;textShadow=0;sketch=1;curveFitting=1;jiggle=2;fontColor=#000000;" vertex="1" parent="GkQJpH66xGiW_wHa0gbF-69">
          <mxGeometry x="1570" y="340" width="90" height="120" as="geometry" />
        </mxCell>
        <mxCell id="GkQJpH66xGiW_wHa0gbF-118" value="&lt;div style=&quot;font-size: 18px;&quot;&gt;&lt;font style=&quot;font-size: 18px;&quot;&gt;1) передается информация об арендаторе и объекте аренды.&lt;/font&gt;&lt;/div&gt;" style="shape=note;whiteSpace=wrap;html=1;backgroundOutline=1;darkOpacity=0.05;fillColor=#FFF9B2;strokeColor=none;fillStyle=solid;direction=west;gradientDirection=north;shadow=1;size=21;pointerEvents=1;fontFamily=Helvetica;fontSize=18;labelBackgroundColor=none;labelBorderColor=none;textShadow=0;align=left;verticalAlign=top;fontColor=#000000;gradientColor=#FFF2A1;horizontal=1;" vertex="1" parent="GkQJpH66xGiW_wHa0gbF-69">
          <mxGeometry x="1130" y="-390" width="160" height="119" as="geometry" />
        </mxCell>
        <mxCell id="GkQJpH66xGiW_wHa0gbF-121" value="&lt;div style=&quot;font-size: 18px;&quot;&gt;&lt;font style=&quot;font-size: 18px;&quot;&gt;2.2) передается информация об арендаторе и объекте аренды с подтверждением статуса оплаты бронирования.&lt;/font&gt;&lt;/div&gt;" style="shape=note;whiteSpace=wrap;html=1;backgroundOutline=1;darkOpacity=0.05;fillColor=#FFF9B2;strokeColor=none;fillStyle=solid;direction=west;gradientDirection=north;shadow=1;size=21;pointerEvents=1;fontFamily=Helvetica;fontSize=18;labelBackgroundColor=none;labelBorderColor=none;textShadow=0;align=left;verticalAlign=top;fontColor=#000000;gradientColor=#FFF2A1;horizontal=1;" vertex="1" parent="GkQJpH66xGiW_wHa0gbF-69">
          <mxGeometry x="1102" y="-33" width="216" height="151" as="geometry" />
        </mxCell>
        <mxCell id="GkQJpH66xGiW_wHa0gbF-122" value="&lt;font style=&quot;font-size: 18px;&quot;&gt;2.1) передается информация об арендаторе и объекте аренды с суммой резервирования.&lt;/font&gt;" style="shape=note;whiteSpace=wrap;html=1;backgroundOutline=1;darkOpacity=0.05;fillColor=#FFF9B2;strokeColor=none;fillStyle=solid;direction=west;gradientDirection=north;shadow=1;size=21;pointerEvents=1;fontFamily=Helvetica;fontSize=18;labelBackgroundColor=none;labelBorderColor=none;textShadow=0;align=left;verticalAlign=top;fontColor=#000000;gradientColor=#FFF2A1;horizontal=1;" vertex="1" parent="GkQJpH66xGiW_wHa0gbF-69">
          <mxGeometry x="1547" y="-182" width="195" height="134" as="geometry" />
        </mxCell>
        <mxCell id="GkQJpH66xGiW_wHa0gbF-123" value="&lt;div style=&quot;font-size: 18px;&quot;&gt;&lt;font style=&quot;font-size: 18px;&quot;&gt;3) собственник объекта арнеды, арендатор, местоположение объекта&lt;/font&gt;&lt;/div&gt;" style="shape=note;whiteSpace=wrap;html=1;backgroundOutline=1;darkOpacity=0.05;fillColor=#FFF9B2;strokeColor=none;fillStyle=solid;direction=west;gradientDirection=north;shadow=1;size=21;pointerEvents=1;fontFamily=Helvetica;fontSize=18;labelBackgroundColor=none;labelBorderColor=none;textShadow=0;align=left;verticalAlign=top;fontColor=#000000;gradientColor=#FFF2A1;horizontal=1;" vertex="1" parent="GkQJpH66xGiW_wHa0gbF-69">
          <mxGeometry x="926" y="225" width="164" height="131" as="geometry" />
        </mxCell>
        <mxCell id="GkQJpH66xGiW_wHa0gbF-124" value="&lt;div style=&quot;font-size: 18px;&quot;&gt;&lt;font style=&quot;font-size: 18px;&quot;&gt;3.2) арендатор, местоположение объекта&lt;/font&gt;&lt;/div&gt;" style="shape=note;whiteSpace=wrap;html=1;backgroundOutline=1;darkOpacity=0.05;fillColor=#FFF9B2;strokeColor=none;fillStyle=solid;direction=west;gradientDirection=north;shadow=1;size=21;pointerEvents=1;fontFamily=Helvetica;fontSize=18;labelBackgroundColor=none;labelBorderColor=none;textShadow=0;align=left;verticalAlign=top;fontColor=#000000;gradientColor=#FFF2A1;horizontal=1;" vertex="1" parent="GkQJpH66xGiW_wHa0gbF-69">
          <mxGeometry x="1633" y="390" width="177" height="93" as="geometry" />
        </mxCell>
        <mxCell id="GkQJpH66xGiW_wHa0gbF-125" value="&lt;b&gt;&lt;font style=&quot;font-size: 18px;&quot; face=&quot;Comic Sans MS&quot;&gt;RabbitMQ&lt;br&gt;&lt;/font&gt;&lt;/b&gt;&lt;img height=&quot;64&quot; width=&quot;64&quot; src=&quot;data:image/png;base64,iVBORw0KGgoAAAANSUhEUgAAAEAAAABACAYAAACqaXHeAAAACXBIWXMAAA7DAAAOwwHHb6hkAAAAGXRFWHRTb2Z0d2FyZQB3d3cuaW5rc2NhcGUub3Jnm+48GgAAA5pJREFUeJzt2k1oHVUUwPFf2oq0ptW2Bj9AXSiK2hKttoggFhQjxYVfoGvduHHXnbhtobhSEDduFEGhG0GlVgXdVAKVNKJZVVHU1mJtSz80LzaJi/tCno+XyZ07897Mw/nDgeTdc+8958ydM3fmXBoaGhoa/r+srdqADG7AI7gDJ9HqoXMN7sYaXBicaf1nm+DQYlvO4eUunUdxpt0+j3exYYA29pW3LTvfKW+220fwQ4/2dwZuaZ84qncAFrEX21doW8COCuwtnSkrB+AyDmS0v1GBvaWTtQKW7vmV2mbyTLSmNJPL5cdV2rPsvh3rYyeqawCmC/RdKzw6o6hrAI4W7H9drGJdA/ClYhubjbGKdQ1AC4cK9L8qVrGuAYD3C/RdiFWscwA+xE+Jff+JVaxzAObxemLfc2UaUiWj+E32pqiX7IydoM6vwzCHU3g6Z7+/cFgIxtAzgq/kXwUH5dgR1p0b8av8QTiCrRXY2xd2Ylb+IMzg5grsLZ17Zb8FZskJjPcadKTfVrcZE/bnV7b/P285wc1GjnEIEwVsOC0E4UTnj/0KwG14BruxC1sydM8I9/c0jrVlCmc7dLbid6wraNdhxYKYyTo8JySelGXaLd9iHx7EfSWNuYjH++H8HnxfopHdcrLEsT4u0/HNeK+PjvdD5nB1Gc7fheM1cChFdi85kZpUdgkJpZRIVsDY0h8pb4Pj+NTwOg8XUztuEb7YVr2Ei0hLjk9m3XxQAweKyqupzk/UwPhY+Q6/dP22gNd0fQLIsxOcFJLfMDAr1AZ2tOWskLdyVY06eUj1VzWvvBTjWOxT4PlIvTqxp8zBuu+nYZDjMY7F5IDrhb34sPG3iBMjMbfAtuK2VMJ6ER99YwIwtrpKLWmJqBDFBGC0uC2VcEzIBZnEBCC6zFQz3opR6vU2uAH3CNGbxh8lGjUovpB4Yuwp/Gn5UdKyvJSGRY5gU4rz1wqPjqodKCIHU52HJ2vgQKqcxospTnfmgF5ncevOBSHZ7fffz+hJbBSCUPXVjJFLeEV2vSGKzp3SnFCAeKDooAPgCtwv5K1JIXeVwii+Uf0VziMzSi6Db8JHA3ZiSjj+3imTOfo/m+psr43QeTyBh4VS17iwMi4KhcXkyTL4Gp93/TaPz8SdYhnYWac7hReMMq/+Kdy6wnwvWP1MwM9ChSqJlOrwBG5JnbCLS0KtLutU1014TO+VcBmfCJXjhoaGhoaGnPwLqkmcFJ/1dU8AAAAASUVORK5CYII=&quot;&gt;&lt;br&gt;&lt;b&gt;&lt;font style=&quot;font-size: 18px;&quot; face=&quot;Comic Sans MS&quot;&gt;Async&lt;/font&gt;&lt;/b&gt;" style="rounded=0;whiteSpace=wrap;html=1;fillColor=#a20025;strokeColor=#6F0000;shadow=1;rotation=1;labelBackgroundColor=none;labelBorderColor=none;textShadow=0;sketch=1;curveFitting=1;jiggle=2;fontColor=#000000;" vertex="1" parent="GkQJpH66xGiW_wHa0gbF-69">
          <mxGeometry x="1000" y="380" width="90" height="120" as="geometry" />
        </mxCell>
        <mxCell id="GkQJpH66xGiW_wHa0gbF-126" value="&lt;div style=&quot;font-size: 18px;&quot;&gt;&lt;span style=&quot;font-size: 18px;&quot;&gt;3.1) собственник объекта арнеды, арендатор&lt;/span&gt;&lt;br style=&quot;font-size: 18px;&quot;&gt;&lt;/div&gt;" style="shape=note;whiteSpace=wrap;html=1;backgroundOutline=1;darkOpacity=0.05;fillColor=#FFF9B2;strokeColor=none;fillStyle=solid;direction=west;gradientDirection=north;shadow=1;size=21;pointerEvents=1;fontFamily=Helvetica;fontSize=18;labelBackgroundColor=none;labelBorderColor=none;textShadow=0;align=left;verticalAlign=top;fontColor=#000000;gradientColor=#FFF2A1;horizontal=1;" vertex="1" parent="GkQJpH66xGiW_wHa0gbF-69">
          <mxGeometry x="861" y="399" width="146" height="101" as="geometry" />
        </mxCell>
        <mxCell id="GkQJpH66xGiW_wHa0gbF-128" value="&lt;div style=&quot;font-size: 18px;&quot;&gt;&lt;font style=&quot;font-size: 18px;&quot;&gt;1) 202 - принято&lt;/font&gt;&lt;/div&gt;&lt;div style=&quot;font-size: 18px;&quot;&gt;&amp;nbsp; &amp;nbsp; 402&amp;nbsp; - необходима оплата&lt;/div&gt;" style="shape=note;whiteSpace=wrap;html=1;backgroundOutline=1;darkOpacity=0.05;fillColor=#E6FFCC;strokeColor=none;fillStyle=solid;direction=west;gradientDirection=north;shadow=1;size=21;pointerEvents=1;fontFamily=Helvetica;fontSize=18;labelBackgroundColor=none;labelBorderColor=none;textShadow=0;align=left;verticalAlign=top;fontColor=#000000;gradientColor=#CCFFCC;horizontal=1;" vertex="1" parent="GkQJpH66xGiW_wHa0gbF-69">
          <mxGeometry x="1067" y="-247" width="245" height="57" as="geometry" />
        </mxCell>
        <mxCell id="GkQJpH66xGiW_wHa0gbF-129" value="&lt;div style=&quot;font-size: 18px;&quot;&gt;&lt;font style=&quot;font-size: 18px;&quot;&gt;2.1) 201 - оплата произведена&lt;/font&gt;&lt;/div&gt;&lt;div style=&quot;font-size: 18px;&quot;&gt;&amp;nbsp; &amp;nbsp; &amp;nbsp; &amp;nbsp;400 - некоректный запрос&lt;/div&gt;" style="shape=note;whiteSpace=wrap;html=1;backgroundOutline=1;darkOpacity=0.05;fillColor=#E6FFCC;strokeColor=none;fillStyle=solid;direction=west;gradientDirection=north;shadow=1;size=21;pointerEvents=1;fontFamily=Helvetica;fontSize=18;labelBackgroundColor=none;labelBorderColor=none;textShadow=0;align=left;verticalAlign=top;fontColor=#000000;gradientColor=#CCFFCC;horizontal=1;" vertex="1" parent="GkQJpH66xGiW_wHa0gbF-69">
          <mxGeometry x="1447" y="-257" width="272" height="59" as="geometry" />
        </mxCell>
        <mxCell id="GkQJpH66xGiW_wHa0gbF-131" value="&lt;div style=&quot;font-size: 18px;&quot;&gt;&lt;font style=&quot;font-size: 18px;&quot;&gt;2.2) 200 - хорошо&lt;/font&gt;&lt;/div&gt;&lt;div style=&quot;font-size: 18px;&quot;&gt;&amp;nbsp; &amp;nbsp; 400 -&amp;nbsp;&lt;span style=&quot;background-color: initial;&quot;&gt;некоректный запрос&lt;/span&gt;&lt;/div&gt;&lt;div style=&quot;font-size: 18px;&quot;&gt;&lt;span style=&quot;background-color: initial;&quot;&gt;&amp;nbsp; &amp;nbsp; 404 - не найдено&lt;/span&gt;&lt;/div&gt;" style="shape=note;whiteSpace=wrap;html=1;backgroundOutline=1;darkOpacity=0.05;fillColor=#E6FFCC;strokeColor=none;fillStyle=solid;direction=west;gradientDirection=north;shadow=1;size=21;pointerEvents=1;fontFamily=Helvetica;fontSize=18;labelBackgroundColor=none;labelBorderColor=none;textShadow=0;align=left;verticalAlign=top;fontColor=#000000;gradientColor=#CCFFCC;horizontal=1;" vertex="1" parent="GkQJpH66xGiW_wHa0gbF-69">
          <mxGeometry x="1176" y="118" width="250" height="80" as="geometry" />
        </mxCell>
        <mxCell id="GkQJpH66xGiW_wHa0gbF-70" value="элементы" parent="0" />
        <mxCell id="GkQJpH66xGiW_wHa0gbF-1" value="&lt;b&gt;&lt;font face=&quot;Comic Sans MS&quot; style=&quot;font-size: 18px;&quot;&gt;Учет и регистрация объектов аренды&lt;/font&gt;&lt;/b&gt;" style="rounded=0;whiteSpace=wrap;html=1;fillColor=#fad7ac;strokeColor=#b46504;shadow=1;rotation=1;labelBackgroundColor=none;labelBorderColor=none;textShadow=0;sketch=1;curveFitting=1;jiggle=2;glass=0;" vertex="1" parent="GkQJpH66xGiW_wHa0gbF-70">
          <mxGeometry x="614" y="-615" width="197" height="175" as="geometry" />
        </mxCell>
        <mxCell id="GkQJpH66xGiW_wHa0gbF-3" value="&lt;b&gt;&lt;font face=&quot;Comic Sans MS&quot; style=&quot;font-size: 18px;&quot;&gt;Презентация объектов аренды&lt;/font&gt;&lt;/b&gt;" style="rounded=0;whiteSpace=wrap;html=1;fillColor=#fad7ac;strokeColor=#b46504;shadow=1;rotation=1;labelBackgroundColor=none;labelBorderColor=none;textShadow=0;sketch=1;curveFitting=1;jiggle=2;glass=0;" vertex="1" parent="GkQJpH66xGiW_wHa0gbF-70">
          <mxGeometry x="692" y="-462.00000000000006" width="197" height="175" as="geometry" />
        </mxCell>
        <mxCell id="GkQJpH66xGiW_wHa0gbF-6" value="&lt;b&gt;&lt;font face=&quot;Comic Sans MS&quot; style=&quot;font-size: 18px;&quot;&gt;Состояние объектов аренды&lt;/font&gt;&lt;/b&gt;" style="rounded=0;whiteSpace=wrap;html=1;fillColor=#fad7ac;strokeColor=#b46504;shadow=1;rotation=1;labelBackgroundColor=none;labelBorderColor=none;textShadow=0;sketch=1;curveFitting=1;jiggle=2;glass=0;" vertex="1" parent="GkQJpH66xGiW_wHa0gbF-70">
          <mxGeometry x="686" y="-62" width="197" height="175" as="geometry" />
        </mxCell>
        <mxCell id="GkQJpH66xGiW_wHa0gbF-12" value="&lt;h1&gt;&lt;span style=&quot;font-size: 18px;&quot;&gt;&lt;font face=&quot;Comic Sans MS&quot;&gt;Core&lt;/font&gt;&lt;/span&gt;&lt;/h1&gt;" style="rounded=0;whiteSpace=wrap;html=1;fillColor=#f8cecc;strokeColor=#b85450;shadow=1;rotation=1;labelBackgroundColor=none;labelBorderColor=none;textShadow=0;sketch=1;curveFitting=1;jiggle=2;glass=0;" vertex="1" parent="GkQJpH66xGiW_wHa0gbF-70">
          <mxGeometry x="499" y="-648" width="207" height="50" as="geometry" />
        </mxCell>
        <mxCell id="GkQJpH66xGiW_wHa0gbF-5" value="&lt;b&gt;&lt;font face=&quot;Comic Sans MS&quot; style=&quot;font-size: 18px;&quot;&gt;Чат комнаты&lt;/font&gt;&lt;/b&gt;" style="rounded=0;whiteSpace=wrap;html=1;fillColor=#fad7ac;strokeColor=#b46504;shadow=1;rotation=1;labelBackgroundColor=none;labelBorderColor=none;textShadow=0;sketch=1;curveFitting=1;jiggle=2;glass=0;" vertex="1" parent="GkQJpH66xGiW_wHa0gbF-70">
          <mxGeometry x="953" y="596" width="197" height="175" as="geometry" />
        </mxCell>
        <mxCell id="GkQJpH66xGiW_wHa0gbF-8" value="&lt;font face=&quot;Comic Sans MS&quot;&gt;&lt;span style=&quot;font-size: 18px;&quot;&gt;&lt;b&gt;Сервисные услуги&lt;/b&gt;&lt;/span&gt;&lt;/font&gt;" style="rounded=0;whiteSpace=wrap;html=1;fillColor=#fad7ac;strokeColor=#b46504;shadow=1;rotation=1;labelBackgroundColor=none;labelBorderColor=none;textShadow=0;sketch=1;curveFitting=1;jiggle=2;glass=0;" vertex="1" parent="GkQJpH66xGiW_wHa0gbF-70">
          <mxGeometry x="1669" y="575" width="197" height="175" as="geometry" />
        </mxCell>
        <mxCell id="GkQJpH66xGiW_wHa0gbF-11" value="&lt;font face=&quot;Comic Sans MS&quot;&gt;&lt;span style=&quot;font-size: 18px;&quot;&gt;&lt;b&gt;Рекомендации&lt;/b&gt;&lt;/span&gt;&lt;/font&gt;" style="rounded=0;whiteSpace=wrap;html=1;fillColor=#fad7ac;strokeColor=#b46504;shadow=1;rotation=1;labelBackgroundColor=none;labelBorderColor=none;textShadow=0;sketch=1;curveFitting=1;jiggle=2;glass=0;" vertex="1" parent="GkQJpH66xGiW_wHa0gbF-70">
          <mxGeometry x="1333" y="593" width="197" height="175" as="geometry" />
        </mxCell>
        <mxCell id="GkQJpH66xGiW_wHa0gbF-14" value="&lt;h1&gt;&lt;span style=&quot;font-size: 18px;&quot;&gt;&lt;font face=&quot;Comic Sans MS&quot;&gt;Supporting&lt;/font&gt;&lt;/span&gt;&lt;/h1&gt;" style="rounded=0;whiteSpace=wrap;html=1;fillColor=#f8cecc;strokeColor=#b85450;shadow=1;rotation=1;labelBackgroundColor=none;labelBorderColor=none;textShadow=0;sketch=1;curveFitting=1;jiggle=2;glass=0;" vertex="1" parent="GkQJpH66xGiW_wHa0gbF-70">
          <mxGeometry x="1207" y="445" width="207" height="50" as="geometry" />
        </mxCell>
        <mxCell id="GkQJpH66xGiW_wHa0gbF-4" value="&lt;b&gt;&lt;font face=&quot;Comic Sans MS&quot; style=&quot;font-size: 18px;&quot;&gt;Расчет стоимости аренды&lt;/font&gt;&lt;/b&gt;" style="rounded=0;whiteSpace=wrap;html=1;fillColor=#fad7ac;strokeColor=#b46504;shadow=1;rotation=1;labelBackgroundColor=none;labelBorderColor=none;textShadow=0;sketch=1;curveFitting=1;jiggle=2;glass=0;" vertex="1" parent="GkQJpH66xGiW_wHa0gbF-70">
          <mxGeometry x="1832" y="-672" width="197" height="175" as="geometry" />
        </mxCell>
        <mxCell id="GkQJpH66xGiW_wHa0gbF-9" value="&lt;font face=&quot;Comic Sans MS&quot;&gt;&lt;span style=&quot;font-size: 18px;&quot;&gt;&lt;b&gt;Платежная система&lt;/b&gt;&lt;/span&gt;&lt;/font&gt;" style="rounded=0;whiteSpace=wrap;html=1;fillColor=#fad7ac;strokeColor=#b46504;shadow=1;rotation=1;labelBackgroundColor=none;labelBorderColor=none;textShadow=0;sketch=1;curveFitting=1;jiggle=2;glass=0;" vertex="1" parent="GkQJpH66xGiW_wHa0gbF-70">
          <mxGeometry x="1882" y="-312" width="197" height="175" as="geometry" />
        </mxCell>
        <mxCell id="GkQJpH66xGiW_wHa0gbF-13" value="&lt;h1&gt;&lt;span style=&quot;font-size: 18px;&quot;&gt;&lt;font face=&quot;Comic Sans MS&quot;&gt;Generic&lt;/font&gt;&lt;/span&gt;&lt;/h1&gt;" style="rounded=0;whiteSpace=wrap;html=1;fillColor=#f8cecc;strokeColor=#b85450;shadow=1;rotation=1;labelBackgroundColor=none;labelBorderColor=none;textShadow=0;sketch=1;curveFitting=1;jiggle=2;glass=0;" vertex="1" parent="GkQJpH66xGiW_wHa0gbF-70">
          <mxGeometry x="1672" y="-667" width="207" height="50" as="geometry" />
        </mxCell>
        <mxCell id="GkQJpH66xGiW_wHa0gbF-7" value="&lt;b&gt;&lt;font face=&quot;Comic Sans MS&quot; style=&quot;font-size: 18px;&quot;&gt;Рейтинги и отзывы объектов аренды&lt;/font&gt;&lt;/b&gt;" style="rounded=0;whiteSpace=wrap;html=1;fillColor=#fad7ac;strokeColor=#b46504;shadow=1;rotation=1;labelBackgroundColor=none;labelBorderColor=none;textShadow=0;sketch=1;curveFitting=1;jiggle=2;glass=0;" vertex="1" parent="GkQJpH66xGiW_wHa0gbF-70">
          <mxGeometry x="1862" y="158" width="197" height="175" as="geometry" />
        </mxCell>
        <mxCell id="GkQJpH66xGiW_wHa0gbF-75" value="&lt;font face=&quot;Comic Sans MS&quot;&gt;&lt;span style=&quot;font-size: 18px;&quot;&gt;&lt;b&gt;Арендатор&lt;/b&gt;&lt;/span&gt;&lt;/font&gt;" style="rounded=0;whiteSpace=wrap;html=1;fillColor=#ffff88;strokeColor=#36393d;shadow=1;rotation=1;labelBackgroundColor=none;labelBorderColor=none;textShadow=0;sketch=1;curveFitting=1;jiggle=2;" vertex="1" parent="GkQJpH66xGiW_wHa0gbF-70">
          <mxGeometry x="556" y="-312" width="120" height="76" as="geometry" />
        </mxCell>
        <mxCell id="GkQJpH66xGiW_wHa0gbF-76" value="&lt;font face=&quot;Comic Sans MS&quot;&gt;&lt;span style=&quot;font-size: 18px;&quot;&gt;&lt;b&gt;Объекты аренды&lt;/b&gt;&lt;/span&gt;&lt;/font&gt;" style="rounded=0;whiteSpace=wrap;html=1;fillColor=#60a917;strokeColor=#2D7600;shadow=1;rotation=1;labelBackgroundColor=none;labelBorderColor=none;textShadow=0;sketch=1;curveFitting=1;jiggle=2;fontColor=#000000;" vertex="1" parent="GkQJpH66xGiW_wHa0gbF-70">
          <mxGeometry x="426" y="-342" width="120" height="127" as="geometry" />
        </mxCell>
      </root>
    </mxGraphModel>
  </diagram>
</mxfile>
